<svg width="291" height="193" viewBox="0 0 291 193" fill="none" xmlns="http://www.w3.org/2000/svg">
<path d="M241.618 96.5146C241.618 173.911 154.791 218.497 91.7281 176.281C36.0699 139.049 34.5629 57.7368 89.0763 18.5835C89.0763 18.5835 89.0908 18.569 89.1198 18.5545C89.1922 18.5112 89.1922 18.4968 89.2067 18.4823C89.2502 18.439 89.2936 18.4101 89.3371 18.3956C152.052 -26.4212 241.618 17.7311 241.618 96.5146Z" fill="url(#paint0_radial_3_641)"/>
<path d="M104.538 96.5146C105.103 102.164 85.2798 96.5146 72.818 96.5146C64.5004 96.5146 55.6612 98.0316 49.039 95.8356C49.097 86.719 50.4446 77.9059 52.879 69.5695C56.2553 69.1361 61.979 70.1041 70.5574 76.7501C85.845 88.5972 103.973 90.8655 104.538 96.5146Z" fill="url(#paint1_linear_3_641)"/>
<path d="M170.803 108.362C156.646 107.235 140.779 103.276 137.953 106.108C135.127 108.925 160.79 116.135 184.395 120.223C210.449 124.745 226.881 126.436 221.215 119.096C215.55 111.757 206.493 102.713 192.321 107.235C178.179 111.757 178.715 108.997 170.803 108.362Z" fill="url(#paint2_linear_3_641)"/>
<path d="M169.673 147.905C169.673 154.017 113.595 137.734 94.9018 145.088C80.933 150.578 76.4554 154.479 67.9929 153.757C58.0234 140.378 51.4447 124.326 49.5754 106.874C54.4588 108.723 62.8633 112.306 76.209 119.111C100.582 131.521 169.673 139.424 169.673 147.905Z" fill="url(#paint3_linear_3_641)"/>
<path d="M213.898 163.899C206.58 171.31 198.045 177.537 188.641 182.262C186.119 180.008 183.642 177.465 179.874 176.136C170.238 172.741 144.763 166.543 149.85 163.148C154.95 159.752 171.368 162.021 190.626 160.894C202.291 160.2 209.797 162.208 213.898 163.899Z" fill="url(#paint4_linear_3_641)"/>
<path d="M205.928 148.469C199.146 141.288 179.874 142.82 182.7 149.596C184.25 153.28 214.985 158.062 205.928 148.469Z" fill="url(#paint5_linear_3_641)"/>
<path d="M123.796 158.625C115.377 156.762 109.639 160.316 108.508 163.148C107.378 165.965 131.737 169.923 132.302 167.106C132.867 164.289 128.896 159.752 123.796 158.625Z" fill="url(#paint6_linear_3_641)"/>
<path d="M120.405 110.066C114.797 108.665 104.552 111.193 104.552 114.589C104.552 117.984 118.144 121.928 123.81 120.238C129.462 118.533 131.722 112.884 120.405 110.066Z" fill="url(#paint7_linear_3_641)"/>
<path d="M130.027 120.787C128.346 120.512 126.056 122.477 127.201 124.182C128.331 125.872 136.823 121.928 130.027 120.787Z" fill="url(#paint8_linear_3_641)"/>
<path d="M187.235 136.607C183.598 135.523 181.004 137.171 182.7 140.566C184.41 143.947 198.567 139.988 187.235 136.607Z" fill="url(#paint9_linear_3_641)"/>
<path d="M213.855 154.118C211.855 152.124 210.449 155.808 211.594 156.935C212.724 158.062 218.39 158.625 213.855 154.118Z" fill="url(#paint10_linear_3_641)"/>
<path d="M162.297 191.017C156.791 192 151.11 192.505 145.329 192.505C125.491 192.505 107.045 186.524 91.7281 176.266C103.074 173.001 121.941 175.674 140.808 184.602C149.589 188.778 156.791 190.468 162.297 191.017Z" fill="url(#paint11_linear_3_641)"/>
<path d="M166.282 180.658C163.398 180.658 163.456 182.349 163.456 184.053C163.456 185.744 166.282 186.307 167.992 184.053C169.673 181.785 168.543 180.658 166.282 180.658Z" fill="url(#paint12_linear_3_641)"/>
<path d="M158.921 182.349C157.805 182.161 157.225 185.166 158.921 185.744C160.616 186.307 162.312 182.912 158.921 182.349Z" fill="url(#paint13_linear_3_641)"/>
<path d="M94.3508 151.286C90.4239 152.066 84.7146 154.681 89.8153 158.062C94.916 161.457 105.668 149.032 94.3508 151.286Z" fill="url(#paint14_linear_3_641)"/>
<path d="M75.6582 104.417C73.6151 102.38 72.253 107.813 73.3977 108.376C74.5135 108.94 77.9188 106.671 75.6582 104.417Z" fill="url(#paint15_linear_3_641)"/>
<path d="M92.076 72.2279C87.0623 69.7284 80.1793 67.7057 79.049 69.974C77.9188 72.2279 99.4372 87.4847 104.538 84.0895C109.639 80.6943 96.6116 74.4817 92.076 72.2279Z" fill="url(#paint16_linear_3_641)"/>
<path d="M175.339 96.5146C171.759 94.7231 171.933 102.727 177.034 104.981C182.135 107.235 177.614 97.6415 175.339 96.5146Z" fill="url(#paint17_linear_3_641)"/>
<path d="M230.852 106.108C224.012 105.79 226.316 116.843 230.852 117.969C235.387 119.096 242.748 106.671 230.852 106.108Z" fill="url(#paint18_linear_3_641)"/>
<path opacity="0.45" d="M199.436 175.919C195.988 178.26 192.394 180.369 188.641 182.262C180.454 186.379 171.6 189.37 162.283 191.017C156.776 192 151.096 192.505 145.314 192.505C125.477 192.505 107.03 186.524 91.7137 176.266C82.5702 170.155 74.5569 162.526 68.0072 153.728C66.5871 151.82 65.225 149.856 63.9498 147.833C56.2553 135.74 51.1981 121.798 49.5897 106.845C49.2274 103.449 49.0391 99.982 49.0391 96.5001C49.0391 96.269 49.0391 96.0378 49.0391 95.8211C49.097 88.3083 50.0099 80.9977 51.7053 73.9905C63.7325 105.66 86.7145 141.953 130.548 161.486C135.997 163.913 141.764 166.08 147.865 167.944C166.137 173.521 183.395 175.862 199.436 175.919Z" fill="url(#paint19_linear_3_641)"/>
<path opacity="0.55" d="M236.127 128.502C231.374 141.909 223.723 153.959 213.898 163.899C209.493 168.363 204.653 172.394 199.436 175.919C195.988 178.26 192.394 180.369 188.641 182.262C180.454 186.379 171.6 189.37 162.283 191.017C156.776 192 151.096 192.505 145.314 192.505C125.477 192.505 107.03 186.524 91.7138 176.266C82.5703 170.155 74.557 162.526 68.0073 153.728C66.5872 151.82 65.2251 149.856 63.95 147.833C88.5839 156.429 110.74 160.561 130.548 161.472C178.961 163.697 213.434 146.663 236.127 128.502Z" fill="url(#paint20_linear_3_641)"/>
<path d="M89.3373 18.3956C89.2648 18.4534 89.2068 18.4823 89.1779 18.5112C89.2068 18.4823 89.2793 18.4245 89.3373 18.3956Z" fill="url(#paint21_linear_3_641)"/>
<path d="M240.908 108.159C241.343 103.926 244.821 56.3209 186.96 24.507C129.302 -7.19135 92.7572 16.0695 89.3374 18.3956C105.118 7.12639 124.448 0.494858 145.329 0.494858C203.233 0.509306 247.922 51.1053 240.908 108.159Z" fill="url(#paint22_linear_3_641)"/>
<path d="M246.835 103.637C245.096 102.9 243.314 102.164 241.488 101.441C241.43 102.713 241.328 103.955 241.227 105.212C258.253 112.075 268.063 118.62 267.122 123.532C266.165 128.545 254.196 131.001 235.213 131.001C212.362 131.001 179.338 127.447 143.068 120.512C104.132 113.057 70.1226 103.363 49.0679 94.3763C34.2296 88.0482 25.8251 82.0813 26.709 77.5158C27.5639 73.037 37.1856 70.6098 52.7195 70.133C52.7775 69.9307 52.8209 69.7429 52.8789 69.5551C53.0963 68.8038 53.3281 68.067 53.56 67.3301C29.8969 68.1537 15.6672 72.4302 14.3775 79.1484C13.0299 86.17 25.7381 95.8933 49.2563 105.833C49.3287 105.862 49.4157 105.891 49.4881 105.934C73.8032 116.178 106.9 125.598 142.72 132.461C174.512 138.543 205.059 141.967 229.997 142.271C233.243 142.314 236.387 142.299 239.416 142.242C264.948 141.693 280.38 137.344 281.728 130.337C283.076 123.301 270.367 113.577 246.835 103.637Z" fill="url(#paint23_linear_3_641)"/>
<path d="M241.618 96.2401V96.5146C241.618 97.367 241.604 98.205 241.589 99.0574C243.69 99.8809 245.748 100.719 247.733 101.571C265.383 109.026 286.003 120.151 283.96 130.756C281.917 141.36 258.63 144.077 239.474 144.496C237.59 144.539 235.663 144.553 233.692 144.553C232.069 144.553 230.417 144.539 228.736 144.51C203.899 144.091 173.687 140.681 142.286 134.671C106.885 127.895 74.1222 118.62 49.7781 108.506C49.2999 108.304 48.8362 108.116 48.3725 107.914C30.7231 100.459 10.103 89.334 12.1462 78.7294C14.1024 68.5437 35.6353 65.6397 54.3281 65.0474C54.7194 63.906 55.1396 62.7647 55.5888 61.6377C23.8545 62.259 2.77081 68.0814 0.727644 78.6716C-1.44594 89.9698 18.493 104.201 51.2706 117.16C74.9627 126.523 105.378 135.22 138.996 141.664C170.383 147.674 199.915 150.809 224.447 151.243C262.514 151.907 288.553 146.041 290.828 134.209C292.958 123.055 273.599 109.055 241.618 96.2401Z" fill="url(#paint24_linear_3_641)"/>
<defs>
<radialGradient id="paint0_radial_3_641" cx="0" cy="0" r="1" gradientUnits="userSpaceOnUse" gradientTransform="translate(152.135 54.9936) scale(114.821 114.482)">
<stop stop-color="#FBDFB6"/>
<stop offset="1" stop-color="#ED8D35"/>
</radialGradient>
<linearGradient id="paint1_linear_3_641" x1="59.2576" y1="215.625" x2="94.7335" y2="-33.4416" gradientUnits="userSpaceOnUse">
<stop stop-color="#BD602B"/>
<stop offset="1" stop-color="#E28E2B" stop-opacity="0"/>
</linearGradient>
<linearGradient id="paint2_linear_3_641" x1="163.371" y1="230.454" x2="198.847" y2="-18.6117" gradientUnits="userSpaceOnUse">
<stop stop-color="#BD7A2B"/>
<stop offset="1" stop-color="#E2832B" stop-opacity="0"/>
</linearGradient>
<linearGradient id="paint3_linear_3_641" x1="96.2389" y1="220.892" x2="131.715" y2="-28.1737" gradientUnits="userSpaceOnUse">
<stop stop-color="#BD712B"/>
<stop offset="1" stop-color="#E2992B" stop-opacity="0"/>
</linearGradient>
<linearGradient id="paint4_linear_3_641" x1="171.847" y1="231.661" x2="207.323" y2="-17.4054" gradientUnits="userSpaceOnUse">
<stop stop-color="#BD602B"/>
<stop offset="1" stop-color="#E22B57" stop-opacity="0"/>
</linearGradient>
<linearGradient id="paint5_linear_3_641" x1="183.058" y1="233.259" x2="218.534" y2="-15.8077" gradientUnits="userSpaceOnUse">
<stop stop-color="#BD712B"/>
<stop offset="1" stop-color="#E22B57" stop-opacity="0"/>
</linearGradient>
<linearGradient id="paint6_linear_3_641" x1="112.08" y1="223.149" x2="147.556" y2="-25.9184" gradientUnits="userSpaceOnUse">
<stop stop-color="#BD832B"/>
<stop offset="1" stop-color="#E22B57" stop-opacity="0"/>
</linearGradient>
<linearGradient id="paint7_linear_3_641" x1="101.265" y1="221.609" x2="136.741" y2="-27.459" gradientUnits="userSpaceOnUse">
<stop stop-color="#BD832B"/>
<stop offset="1" stop-color="#E22B57" stop-opacity="0"/>
</linearGradient>
<linearGradient id="paint8_linear_3_641" x1="115.306" y1="223.608" x2="150.782" y2="-25.4582" gradientUnits="userSpaceOnUse">
<stop stop-color="#BD712B"/>
<stop offset="1" stop-color="#E22B57" stop-opacity="0"/>
</linearGradient>
<linearGradient id="paint9_linear_3_641" x1="173.563" y1="231.907" x2="209.039" y2="-17.161" gradientUnits="userSpaceOnUse">
<stop stop-color="#BD602B"/>
<stop offset="1" stop-color="#E2782B" stop-opacity="0"/>
</linearGradient>
<linearGradient id="paint10_linear_3_641" x1="201.963" y1="235.95" x2="237.438" y2="-13.1123" gradientUnits="userSpaceOnUse">
<stop stop-color="#BD7A2B"/>
<stop offset="1" stop-color="#E22B57" stop-opacity="0"/>
</linearGradient>
<linearGradient id="paint11_linear_3_641" x1="121.159" y1="224.442" x2="156.635" y2="-24.6239" gradientUnits="userSpaceOnUse">
<stop stop-color="#BD832B"/>
<stop offset="1" stop-color="#E2992B" stop-opacity="0"/>
</linearGradient>
<linearGradient id="paint12_linear_3_641" x1="159.354" y1="229.881" x2="194.829" y2="-19.1818" gradientUnits="userSpaceOnUse">
<stop stop-color="#BD832B"/>
<stop offset="1" stop-color="#E2782B" stop-opacity="0"/>
</linearGradient>
<linearGradient id="paint13_linear_3_641" x1="152.92" y1="228.966" x2="188.396" y2="-20.1015" gradientUnits="userSpaceOnUse">
<stop stop-color="#BD7A2B"/>
<stop offset="1" stop-color="#E2992B" stop-opacity="0"/>
</linearGradient>
<linearGradient id="paint14_linear_3_641" x1="84.2351" y1="219.182" x2="119.711" y2="-29.8819" gradientUnits="userSpaceOnUse">
<stop stop-color="#BD712B"/>
<stop offset="1" stop-color="#E2992B" stop-opacity="0"/>
</linearGradient>
<linearGradient id="paint15_linear_3_641" x1="59.0686" y1="215.599" x2="94.5449" y2="-33.469" gradientUnits="userSpaceOnUse">
<stop stop-color="#BD602B"/>
<stop offset="1" stop-color="#E2992B" stop-opacity="0"/>
</linearGradient>
<linearGradient id="paint16_linear_3_641" x1="72.1265" y1="217.457" x2="107.602" y2="-31.609" gradientUnits="userSpaceOnUse">
<stop stop-color="#BD712B"/>
<stop offset="1" stop-color="#E2A42B" stop-opacity="0"/>
</linearGradient>
<linearGradient id="paint17_linear_3_641" x1="157.733" y1="229.652" x2="193.209" y2="-19.4155" gradientUnits="userSpaceOnUse">
<stop stop-color="#BD712B"/>
<stop offset="1" stop-color="#E2832B" stop-opacity="0"/>
</linearGradient>
<linearGradient id="paint18_linear_3_641" x1="213.732" y1="237.628" x2="249.208" y2="-11.4397" gradientUnits="userSpaceOnUse">
<stop stop-color="#BD712B"/>
<stop offset="1" stop-color="#E2A42B" stop-opacity="0"/>
</linearGradient>
<linearGradient id="paint19_linear_3_641" x1="114.634" y1="187.685" x2="129.276" y2="102.395" gradientUnits="userSpaceOnUse">
<stop stop-color="#BD712B"/>
<stop offset="1" stop-color="#E2992B" stop-opacity="0"/>
</linearGradient>
<linearGradient id="paint20_linear_3_641" x1="164.852" y1="196.891" x2="147.657" y2="128.327" gradientUnits="userSpaceOnUse">
<stop stop-color="#A66D2B"/>
<stop offset="1" stop-color="#AE522B" stop-opacity="0"/>
</linearGradient>
<linearGradient id="paint21_linear_3_641" x1="89.3342" y1="18.3416" x2="89.1733" y2="18.5679" gradientUnits="userSpaceOnUse">
<stop stop-color="#FADBD1"/>
<stop offset="1" stop-color="#F9F1DD" stop-opacity="0"/>
</linearGradient>
<linearGradient id="paint22_linear_3_641" x1="221.283" y1="-15.2637" x2="179.422" y2="43.6215" gradientUnits="userSpaceOnUse">
<stop stop-color="#FAEAD1"/>
<stop offset="1" stop-color="#F9E4DD" stop-opacity="0"/>
</linearGradient>
<linearGradient id="paint23_linear_3_641" x1="133.716" y1="155.28" x2="156.812" y2="73.3574" gradientUnits="userSpaceOnUse">
<stop stop-color="#FAC2B0"/>
<stop offset="1" stop-color="#F2AA68"/>
</linearGradient>
<linearGradient id="paint24_linear_3_641" x1="132.053" y1="154.811" x2="155.149" y2="72.8888" gradientUnits="userSpaceOnUse">
<stop stop-color="#FAC2B0"/>
<stop offset="1" stop-color="#F29168"/>
</linearGradient>
</defs>
</svg>
